<svg xmlns="http://www.w3.org/2000/svg" viewBox="0 0 60 150" width="240" height="600"><defs><filter id="sh" x="-40%" y="-40%" width="180%" height="180%"><feGaussianBlur stdDeviation="1.8"/></filter><linearGradient id="cb" x1="0" x2="1"><stop offset="0" stop-color="#C98652"/><stop offset=".45" stop-color="#A2613A"/><stop offset="1" stop-color="#6E3B1E"/></linearGradient><linearGradient id="tw" x1="0" x2="0" y1="0" y2="1"><stop offset="0" stop-color="#DCC28A"/><stop offset="1" stop-color="#A9894F"/></linearGradient></defs>
  <g transform="translate(2.4 3.6)" opacity=".3" filter="url(#sh)"><rect x="12" y="6" width="36" height="136" rx="8" fill="#2B2412"/></g>
  <g transform="rotate(-9 21 73)">
    <path d="M14 8 Q14 5 21 5 Q28 5 28 8 L28 138 Q28 141 21 141 Q14 141 14 138 Z" fill="url(#cb)"/>
    <g stroke="#5E3219" stroke-width=".45" opacity=".35" fill="none">
      <path d="M17.08 10 Q17.88 73 16.68 136"/><path d="M19.32 10 Q20.12 73 18.92 136"/><path d="M21.700000000000003 10 Q22.500000000000004 73 21.300000000000004 136"/><path d="M24.08 10 Q24.88 73 23.68 136"/>
    </g>
    <path d="M25.200000000000003 8 L25.479999999999997 138" stroke="#E2A675" stroke-width="1" opacity=".55"/>
    <path d="M15.68 9 L15.68 137" stroke="#F0BE8E" stroke-width=".9" opacity=".35"/>
    <ellipse cx="21" cy="7.6" rx="6.7" ry="2.4" fill="#6B3A1E"/>
    <path d="M16 7.6 Q21 10.4 26 7.4 Q23 5.6 21 7.6" stroke="#C98A57" stroke-width=".8" fill="none"/>
    <ellipse cx="21" cy="138.4" rx="6.7" ry="2.4" fill="#5A2F17"/>
    <path d="M16.4 138.4 Q21 140.8 25.6 138.2 Q19 136.4 21 138.4" stroke="#B87A48" stroke-width=".8" fill="none"/>
  </g><g transform="rotate(7 37 73)">
    <path d="M30 9 Q30 6 37 6 Q44 6 44 9 L44 137 Q44 140 37 140 Q30 140 30 137 Z" fill="url(#cb)"/>
    <g stroke="#5E3219" stroke-width=".45" opacity=".35" fill="none">
      <path d="M33.08 11 Q33.879999999999995 73 32.68 135"/><path d="M35.32 11 Q36.12 73 34.92 135"/><path d="M37.7 11 Q38.5 73 37.300000000000004 135"/><path d="M40.08 11 Q40.879999999999995 73 39.68 135"/>
    </g>
    <path d="M41.2 9 L41.48 137" stroke="#E2A675" stroke-width="1" opacity=".55"/>
    <path d="M31.68 10 L31.68 136" stroke="#F0BE8E" stroke-width=".9" opacity=".35"/>
    <ellipse cx="37" cy="8.6" rx="6.7" ry="2.4" fill="#6B3A1E"/>
    <path d="M32 8.6 Q37 11.4 42 8.4 Q39 6.6 37 8.6" stroke="#C98A57" stroke-width=".8" fill="none"/>
    <ellipse cx="37" cy="137.4" rx="6.7" ry="2.4" fill="#5A2F17"/>
    <path d="M32.4 137.4 Q37 139.8 41.6 137.2 Q35 135.4 37 137.4" stroke="#B87A48" stroke-width=".8" fill="none"/>
  </g><g transform="rotate(-1 29 73)">
    <path d="M22 6 Q22 3 29 3 Q36 3 36 6 L36 140 Q36 143 29 143 Q22 143 22 140 Z" fill="url(#cb)"/>
    <g stroke="#5E3219" stroke-width=".45" opacity=".35" fill="none">
      <path d="M25.08 8 Q25.88 73 24.68 138"/><path d="M27.32 8 Q28.12 73 26.92 138"/><path d="M29.700000000000003 8 Q30.500000000000004 73 29.300000000000004 138"/><path d="M32.08 8 Q32.879999999999995 73 31.68 138"/>
    </g>
    <path d="M33.2 6 L33.48 140" stroke="#E2A675" stroke-width="1" opacity=".55"/>
    <path d="M23.68 7 L23.68 139" stroke="#F0BE8E" stroke-width=".9" opacity=".35"/>
    <ellipse cx="29" cy="5.6" rx="6.7" ry="2.4" fill="#6B3A1E"/>
    <path d="M24 5.6 Q29 8.4 34 5.4 Q31 3.6 29 5.6" stroke="#C98A57" stroke-width=".8" fill="none"/>
    <ellipse cx="29" cy="140.4" rx="6.7" ry="2.4" fill="#5A2F17"/>
    <path d="M24.4 140.4 Q29 142.8 33.6 140.2 Q27 138.4 29 140.4" stroke="#B87A48" stroke-width=".8" fill="none"/>
  </g>
  <path d="M10 70 Q30 64 50 70 L50 82 Q30 76 10 82 Z" fill="url(#tw)"/>
  <g stroke="#7E6233" stroke-width=".7" opacity=".7"><path d="M14 68 L18 81"/><path d="M19 68 L23 81"/><path d="M24 68 L28 81"/><path d="M29 68 L33 81"/><path d="M34 68 L38 81"/><path d="M39 68 L43 81"/><path d="M44 68 L48 81"/></g>
  <path d="M30 76 Q26 92 21 102 M30 76 Q34 94 38 104" stroke="#B89458" stroke-width="2" fill="none" stroke-linecap="round"/></svg>
